<svg version="1.2" xmlns="http://www.w3.org/2000/svg" viewBox="0 0 110 114" width="490" height="508">
	<title>dataSimilarity1</title>
	<style>
		tspan { white-space:pre } 
		.s0 { fill: #000000 } 
		.t1 { font-size: 5px;fill: #000000;font-family: "Arbeit  Regular" } 
	</style>
	<path class="s0" d="m68.7 97.8q0.4 0.4 0.6 0.9 0.2 0.5 0.2 1.1 0 0.6-0.2 1.1-0.2 0.5-0.6 0.9l-2.3 2.4q-0.4 0.4-0.9 0.6-0.6 0.2-1.1 0.2-0.6 0-1.1-0.2-0.6-0.2-1-0.6l-6.7-6.7q-0.2-0.2-0.3-0.5-0.2-0.3-0.3-0.6 0-0.3 0-0.7 0-0.3 0.1-0.6l-3.4-3.3q0 0-0.1 0-0.2 0-0.4-0.1-0.2 0-0.4-0.1-0.2-0.1-0.4-0.2-0.2-0.1-0.3-0.3-0.9 0.5-1.8 0.9-0.9 0.4-1.8 0.6-0.9 0.2-1.9 0.4-1 0.1-1.9 0.1-0.8 0-1.5-0.1-1.2-0.1-2.3-0.4-1.2-0.3-2.3-0.8-1.1-0.5-2.1-1.1-1-0.7-1.8-1.5h-19q-0.2 0-0.4 0-0.2-0.1-0.4-0.3-0.1-0.1-0.2-0.3-0.1-0.2-0.1-0.4v-50.3q0-0.3 0.1-0.4 0.1-0.2 0.2-0.4 0.2-0.1 0.4-0.2 0.2-0.1 0.4-0.1h29.5q0.1 0 0.2 0 0.1 0.1 0.2 0.1 0.1 0 0.2 0.1 0.1 0.1 0.2 0.1l9.3 9.3q0 0.1 0.1 0.2 0.1 0.1 0.1 0.2 0 0.1 0.1 0.2 0 0.1 0 0.2v20.8q1.6 1.7 2.6 3.9 1 2.2 1.3 4.5 0.3 2.4-0.2 4.7-0.5 2.4-1.6 4.4 0.1 0.2 0.2 0.4 0.1 0.1 0.2 0.3 0.1 0.2 0.2 0.5 0 0.2 0 0.4 0 0.1 0 0.1l3.4 3.4q0.3-0.1 0.6-0.1 0.3 0 0.6 0 0.3 0.1 0.6 0.2 0.3 0.2 0.5 0.4zm-54-10.6h16.1q-0.6-0.7-1.1-1.6-0.4-0.8-0.8-1.7-0.4-0.9-0.6-1.8-0.3-0.9-0.4-1.9h-9.3c-0.3 0-0.5-0.1-0.7-0.3-0.2-0.2-0.3-0.4-0.3-0.7 0-0.3 0.1-0.6 0.3-0.7 0.2-0.2 0.4-0.3 0.7-0.3h1.3v-14.8q0-0.2 0.1-0.4 0.1-0.2 0.2-0.4 0.2-0.1 0.4-0.2 0.2-0.1 0.4-0.1h5.1q0.2 0 0.4 0.1 0.1 0.1 0.3 0.2 0.1 0.2 0.2 0.4 0.1 0.2 0.1 0.4v14.8h0.7q0-1 0.1-1.9 0.1-0.9 0.3-1.8 0.3-0.8 0.6-1.7 0.3-0.8 0.8-1.6v-11.2q0-0.2 0-0.4 0.1-0.2 0.3-0.3 0.1-0.2 0.3-0.2 0.2-0.1 0.4-0.1h5.1q0.2 0 0.4 0.1 0.2 0 0.3 0.2 0.1 0.1 0.2 0.3 0.1 0.2 0.1 0.4v4.6q1.8-0.8 3.7-1.1 2-0.3 3.9-0.1 2 0.2 3.8 0.9 1.8 0.8 3.4 1.9v-18h-8.2q-0.2 0-0.4 0-0.2-0.1-0.4-0.3-0.1-0.1-0.2-0.3-0.1-0.2-0.1-0.4v-8.3h-27.5zm82.7-61.8v41q0 0.2-0.1 0.4-0.1 0.2-0.2 0.4-0.2 0.1-0.4 0.2-0.2 0.1-0.4 0.1h-38.8q-0.2 0-0.4-0.1-0.2-0.1-0.4-0.2-0.1-0.2-0.2-0.4-0.1-0.2-0.1-0.4v-50.3q0-0.2 0.1-0.4 0.1-0.2 0.2-0.3 0.2-0.2 0.4-0.3 0.2 0 0.4 0h29.5q0.1 0 0.2 0 0.1 0 0.2 0 0.1 0.1 0.2 0.1 0.1 0.1 0.2 0.2l9.3 9.3q0 0 0.1 0.1 0.1 0.1 0.1 0.2 0 0.1 0.1 0.2 0 0.1 0 0.2zm-2.1 40v-39h-8.3q-0.2 0-0.4-0.1-0.1 0-0.3-0.2-0.1-0.1-0.2-0.3-0.1-0.2-0.1-0.4v-8.3h-27.5v48.3zm-7.2-41h5.7l-5.8-5.8zm4.4 33.2q0 0.2-0.1 0.4 0 0.2-0.2 0.3-0.1 0.2-0.3 0.2-0.2 0.1-0.4 0.1h-29q-0.4 0-0.7-0.3-0.3-0.3-0.3-0.7 0-0.4 0.3-0.7 0.3-0.3 0.7-0.3h1.3v-10.1q0-0.2 0.1-0.4 0.1-0.2 0.2-0.4 0.1-0.1 0.3-0.2 0.2-0.1 0.4-0.1h5.1q0.2 0 0.4 0.1 0.2 0.1 0.3 0.2 0.2 0.2 0.3 0.4 0 0.2 0 0.4v10.1h2.5v-15.3q0-0.2 0.1-0.4 0.1-0.2 0.2-0.4 0.2-0.1 0.3-0.2 0.2-0.1 0.4-0.1h5.1q0.2 0 0.4 0.1 0.2 0.1 0.4 0.2 0.1 0.2 0.2 0.4 0.1 0.2 0.1 0.4v15.3h2.4v-21.5q0-0.2 0.1-0.3 0.1-0.2 0.2-0.4 0.2-0.1 0.3-0.2 0.2-0.1 0.4-0.1h5.1q0.2 0 0.4 0.1 0.2 0.1 0.4 0.2 0.1 0.2 0.2 0.4 0.1 0.1 0.1 0.3v21.5h1.3q0.2 0 0.4 0 0.2 0.1 0.3 0.3 0.2 0.1 0.2 0.3 0.1 0.2 0.1 0.4zm-7.4-1h3v-20.4h-3zm-9.6 0h3v-14.3h-3zm-9.6 0h3v-9h-3zm-1.2-31.2h5c0.3 0 0.6-0.1 0.8-0.3 0.2-0.2 0.3-0.4 0.3-0.7 0-0.3-0.1-0.5-0.3-0.7-0.2-0.2-0.5-0.3-0.8-0.3h-5c-0.3 0-0.6 0.1-0.8 0.3-0.2 0.2-0.3 0.4-0.3 0.7 0 0.3 0.1 0.5 0.3 0.7 0.2 0.2 0.5 0.3 0.8 0.3zm0 5h8.4q0.4 0 0.7-0.3 0.3-0.3 0.3-0.7 0-0.4-0.3-0.7-0.3-0.3-0.7-0.3h-8.4c-0.3 0-0.6 0.1-0.8 0.3-0.2 0.2-0.3 0.4-0.3 0.7 0 0.3 0.1 0.5 0.3 0.7 0.2 0.2 0.5 0.3 0.8 0.3zm-44.9 15.8q0-0.2 0.1-0.4 0.1-0.2 0.2-0.3 0.2-0.1 0.4-0.2 0.2-0.1 0.4-0.1h5.1c0.2 0 0.5 0.1 0.7 0.3 0.2 0.2 0.3 0.4 0.3 0.7 0 0.3-0.1 0.6-0.3 0.8-0.2 0.2-0.5 0.3-0.7 0.3h-5.1q-0.2 0-0.4-0.1-0.2-0.1-0.4-0.2-0.1-0.2-0.2-0.4-0.1-0.2-0.1-0.4zm38.3 45.8l-2.8-2.8-1.6 1.6 2.8 2.8zm-13.8-45.8h5.8l-5.8-5.8zm-23.4 6.1h8.4c0.2 0 0.5-0.1 0.7-0.3 0.2-0.2 0.3-0.5 0.3-0.8 0-0.2-0.1-0.5-0.3-0.7-0.2-0.2-0.5-0.3-0.7-0.3h-8.4c-0.3 0-0.6 0.1-0.8 0.3-0.2 0.2-0.3 0.5-0.3 0.7 0 0.3 0.1 0.6 0.3 0.8 0.2 0.2 0.5 0.3 0.8 0.3zm13.8 8.8h-3.1v7.2q0.3-0.3 0.6-0.5 0.2-0.3 0.6-0.6 0.3-0.3 0.6-0.5 0.3-0.3 0.6-0.5 0.3-0.2 0.7-0.5zm-9.6 3.4h-3.1v13.8h3.1zm25.9 24.7l0.6 0.6q0 0 0 0 0 0 0 0 0 0 0 0 0.1 0 0.1 0 0 0 0 0 0 0 0 0 0 0 0.1 0 0 0 0 0l2.4-2.5q0.1 0 0.1 0 0-0.1 0-0.1 0 0 0-0.1 0 0-0.1 0l-0.5-0.6q-0.1-0.1-0.2-0.2-0.1-0.2-0.1-0.4 0-0.2 0-0.3 0-0.2 0.1-0.4c1.8-2.6 2.4-5.8 1.9-9-0.5-3.1-2.1-5.9-4.6-7.9-2.5-2-5.6-3-8.8-2.8-3.1 0.1-6.1 1.5-8.4 3.7-1.2 1.2-2.1 2.6-2.8 4.2-0.6 1.5-0.9 3.2-0.9 4.9 0 1.7 0.3 3.4 1 4.9 0.6 1.6 1.6 3 2.7 4.2q1.6 1.5 3.6 2.5 2 0.9 4.2 1.2 2.2 0.2 4.3-0.3 2.2-0.5 4-1.7 0.2-0.1 0.3-0.1 0.2-0.1 0.4-0.1 0.2 0.1 0.3 0.1 0.2 0.1 0.3 0.2zm16.5 10.7q0-0.1 0-0.1 0-0.1 0-0.2-0.1-0.1-0.1-0.1 0-0.1-0.1-0.2l-6.7-6.6q0 0 0 0-0.1-0.1-0.1-0.1-0.1 0-0.1 0.1 0 0-0.1 0l-3.1 3.2q-0.1 0-0.1 0 0 0.1 0 0.1 0 0.1 0 0.1 0 0 0.1 0.1l6.6 6.6q0.2 0.1 0.3 0.2 0.1 0 0.3 0 0.2 0 0.3 0 0.2-0.1 0.3-0.2l2.3-2.3q0.1-0.1 0.1-0.1 0-0.1 0.1-0.2 0-0.1 0-0.1 0-0.1 0-0.2zm-14-21.6c0 1.4-0.3 2.8-0.9 4.1-0.5 1.3-1.3 2.5-2.3 3.5-1 1-2.2 1.8-3.5 2.3-1.3 0.5-2.6 0.8-4.1 0.8-2.1 0-4.1-0.6-5.9-1.7-1.7-1.2-3.1-2.8-3.9-4.7-0.9-2-1.1-4.1-0.7-6.2 0.3-2 1.3-3.9 2.7-5.5q0 0 0 0 0 0 0.1 0 0 0 0 0 0 0 0-0.1 0.1 0 0.1-0.1 0.8-0.7 1.7-1.3 0.8-0.6 1.8-1 1-0.4 2-0.6 1.1-0.2 2.1-0.2c1.4 0 2.8 0.2 4.1 0.8 1.3 0.5 2.5 1.3 3.5 2.3 1 1 1.8 2.2 2.3 3.5 0.6 1.3 0.9 2.7 0.9 4.1zm-12.2-8.6v8.5h3v-8.4q-0.2-0.1-0.4-0.1-0.2 0-0.4 0-0.2-0.1-0.4-0.1-0.2 0-0.4 0-0.2 0-0.3 0-0.2 0-0.4 0.1-0.2 0-0.4 0-0.2 0-0.3 0zm-6.6 5.4q-0.2 0.3-0.3 0.7-0.1 0.4-0.2 0.8-0.1 0.4-0.1 0.8 0 0.4 0 0.8h0.6zm2 3.2h2.5v-7.9q-0.3 0.2-0.7 0.4-0.3 0.1-0.6 0.3-0.3 0.3-0.6 0.5-0.3 0.2-0.6 0.5zm14.7 0q0-1.2-0.4-2.4-0.3-1.2-1-2.2-0.6-1.1-1.6-1.9-0.9-0.8-2.1-1.3v7.8h1.4c0.3 0 0.5 0.1 0.7 0.3 0.2 0.2 0.3 0.4 0.3 0.7 0 0.3-0.1 0.6-0.3 0.8-0.2 0.1-0.4 0.3-0.7 0.2h-13.4q0.3 1.5 1.1 2.7 0.8 1.2 2 2.1 1.1 1 2.5 1.4 1.4 0.5 2.8 0.5c1.2 0 2.3-0.2 3.4-0.6 1-0.5 2-1.1 2.8-1.9 0.8-0.8 1.4-1.8 1.8-2.8 0.5-1.1 0.7-2.2 0.7-3.4z"/>
	<text id="Created by Icon Designer" style="transform: matrix(1,0,0,1,5,127.5)" >
		<tspan x="0" y="0" class="t1">Created by Icon Designer
</tspan>
	</text>
	<text id="from Noun Project" style="transform: matrix(1,0,0,1,5,132.5)" >
		<tspan x="0" y="0" class="t1">from Noun Project
</tspan>
	</text>
</svg>